<svg width="22" height="20" viewBox="0 0 22 20" fill="none" xmlns="http://www.w3.org/2000/svg">
<path d="M1.99811 4.7467L4.43298 9.00772C4.70983 9.4922 4.84825 9.73444 4.84825 10C4.84825 10.2656 4.70983 10.5078 4.43298 10.9923L1.99811 15.2533C0.759808 17.4203 0.140655 18.5039 0.62348 19.0412C1.1063 19.5785 2.24962 19.0783 4.53624 18.0779L18.8119 11.8323C20.6074 11.0468 21.5051 10.654 21.5051 10C21.5051 9.34598 20.6074 8.95322 18.8118 8.16768L4.53624 1.9221C2.24961 0.921707 1.1063 0.421508 0.62348 0.958828C0.140655 1.49615 0.759808 2.57966 1.99811 4.7467Z" fill="white"/>
</svg>
